<svg width="8" height="10" viewBox="0 0 8 10" fill="none" xmlns="http://www.w3.org/2000/svg">
<path d="M0.295669 0.220115C0.106352 0.361097 0 0.552285 0 0.751633C0 0.950982 0.106352 1.14217 0.295669 1.28315L5.2944 5.00453L0.295669 8.72591C0.111717 8.8677 0.00993098 9.05761 0.0122316 9.25473C0.0145327 9.45184 0.120737 9.6404 0.30797 9.77979C0.495204 9.91918 0.748485 9.99825 1.01326 9.99996C1.27804 10.0017 1.53313 9.92589 1.72359 9.78895L7.43628 5.53605C7.6256 5.39507 7.73195 5.20388 7.73195 5.00453C7.73195 4.80518 7.6256 4.614 7.43628 4.47301L1.72359 0.220115C1.53421 0.0791755 1.2774 0 1.00963 0C0.741854 0 0.485043 0.0791755 0.295669 0.220115Z" fill="black"/>
</svg>
