<svg width="22" height="22" viewBox="0 0 22 22" fill="none" xmlns="http://www.w3.org/2000/svg">
<path d="M20.9998 1.66663V20.3329C20.9998 20.7011 20.7013 20.9995 20.3331 20.9995H1.66689C1.29871 20.9995 1.00024 20.7011 1.00024 20.3329V1.66663C1.00024 1.29845 1.29871 0.999977 1.66689 0.999977H20.3331C20.7013 0.999977 20.9998 1.29845 20.9998 1.66663Z" stroke="#D1D1D6" stroke-width="2" stroke-linecap="round" stroke-linejoin="round"/>
<path d="M1.00024 15.4441L8.77784 12.1108L20.9998 17.6662" stroke="#D1D1D6" stroke-width="2" stroke-linecap="round" stroke-linejoin="round"/>
<path d="M15.4443 8.77756C14.217 8.77756 13.2222 7.78266 13.2222 6.55539C13.2222 5.32811 14.217 4.33321 15.4443 4.33321C16.6717 4.33321 17.6665 5.32811 17.6665 6.55539C17.6665 7.78266 16.6717 8.77756 15.4443 8.77756Z" stroke="#D1D1D6" stroke-width="2" stroke-linecap="round" stroke-linejoin="round"/>
</svg>
