<svg width="164" height="119" viewBox="0 0 164 119" fill="none" xmlns="http://www.w3.org/2000/svg">
<g clip-path="url(#clip0_72_45)" filter="url(#filter0_d_72_45)">
<path d="M163.763 118.087H0.236994C0.174139 118.087 0.113859 118.062 0.0694138 118.018C0.0249688 117.973 0 117.912 0 117.849C0 117.786 0.0249688 117.726 0.0694138 117.681C0.113859 117.636 0.174139 117.611 0.236994 117.611H163.763C163.826 117.611 163.886 117.636 163.931 117.681C163.975 117.726 164 117.786 164 117.849C164 117.912 163.975 117.973 163.931 118.018C163.886 118.062 163.826 118.087 163.763 118.087Z" fill="#CCCCCC"/>
<path d="M147.577 76.5695H51.3577C50.9491 76.5695 50.5573 76.7325 50.2684 77.0227C49.9795 77.3129 49.8172 77.7065 49.8172 78.1169C49.8172 78.5273 49.9795 78.9209 50.2684 79.2111C50.5573 79.5013 50.9491 79.6643 51.3577 79.6643H54.0831V116.682C54.0831 117.093 54.2454 117.486 54.5343 117.777C54.8232 118.067 55.215 118.23 55.6236 118.23C56.0321 118.23 56.424 118.067 56.7129 117.777C57.0017 117.486 57.164 117.093 57.164 116.682L57.1875 79.6643H141.534V116.682C141.534 117.093 141.696 117.486 141.985 117.777C142.274 118.067 142.666 118.23 143.074 118.23C143.483 118.23 143.875 118.067 144.164 117.777C144.453 117.486 144.615 117.093 144.615 116.682V80.4802L145.063 79.6643H147.577C147.986 79.6643 148.378 79.5013 148.667 79.2111C148.955 78.9209 149.118 78.5273 149.118 78.1169C149.118 77.7065 148.955 77.3129 148.667 77.0227C148.378 76.7325 147.986 76.5695 147.577 76.5695Z" fill="#CCCCCC"/>
<path d="M104.703 77.3793H75.5567C74.9923 77.3787 74.4512 77.1532 74.0522 76.7524C73.6531 76.3515 73.4287 75.808 73.428 75.2411V59.1224C73.4287 58.5555 73.6531 58.012 74.0522 57.6112C74.4512 57.2103 74.9923 56.9848 75.5567 56.9842H104.703C105.267 56.9848 105.808 57.2103 106.207 57.6112C106.606 58.012 106.831 58.5555 106.831 59.1224V75.2411C106.831 75.808 106.606 76.3515 106.207 76.7524C105.808 77.1532 105.267 77.3787 104.703 77.3793Z" fill="#3F3D56"/>
<path d="M104.702 58.6298H75.5568C75.4268 58.6301 75.3022 58.6821 75.2102 58.7745C75.1183 58.8668 75.0665 58.992 75.0663 59.1226V75.2416C75.0666 75.3722 75.1183 75.4973 75.2103 75.5897C75.3022 75.682 75.4268 75.7341 75.5568 75.7343H104.702C104.833 75.7341 104.957 75.682 105.049 75.5897C105.141 75.4973 105.193 75.3722 105.193 75.2416V59.1226C105.193 58.992 105.141 58.8668 105.049 58.7745C104.957 58.6821 104.833 58.6301 104.702 58.6298Z" fill="white"/>
<path d="M92.6154 70.0419C92.6154 70.0419 89.1263 69.2343 87.2073 70.7149C85.2883 72.1955 89.6497 75.5606 89.6497 75.5606L92.6154 70.0419Z" fill="#2F2E41"/>
<path d="M90.3005 68.516C92.1182 68.516 93.5917 67.0359 93.5917 65.21C93.5917 63.3842 92.1182 61.9041 90.3005 61.9041C88.4829 61.9041 87.0094 63.3842 87.0094 65.21C87.0094 67.0359 88.4829 68.516 90.3005 68.516Z" fill="#A0616A"/>
<path d="M87.7556 60.5693C87.975 60.1951 88.2932 59.8891 88.6749 59.6851C89.0566 59.4812 89.4869 59.3871 89.9185 59.4133C90.3699 59.4702 90.8104 59.5941 91.2256 59.7809L93.3771 60.6239C93.9339 60.842 94.5436 61.1093 94.7852 61.6583C95.0094 62.1679 94.8421 62.7564 94.6728 63.2869L93.8678 65.8087C93.7787 65.238 93.6256 64.6792 93.4117 64.1429C93.1942 63.603 92.8012 63.1529 92.2967 62.8659C91.7379 62.578 91.0792 62.5839 90.4518 62.6143C89.5633 62.6572 88.5972 62.7708 87.9659 63.4003C87.6308 63.7578 87.4036 64.2035 87.3107 64.6856C87.2193 65.1652 87.1733 65.6523 87.1733 66.1406C86.809 65.5114 86.5021 64.8505 86.2563 64.1658C86.0542 63.6559 85.939 63.1155 85.9156 62.5672C85.8945 62.0143 86.0771 61.4729 86.4286 61.0468C86.607 60.8385 86.8398 60.6845 87.1007 60.602C87.3616 60.5195 87.6402 60.5119 87.9052 60.5799L87.7556 60.5693Z" fill="#2F2E41"/>
<path d="M98.159 72.9086C98.1281 72.7969 98.065 72.6969 97.9778 72.6211C97.8905 72.5453 97.7829 72.4971 97.6684 72.4825C97.6609 72.4772 97.6529 72.4724 97.6447 72.4682L92.7315 69.7024C92.5912 69.6234 92.426 69.6018 92.2702 69.6421C92.1145 69.6823 91.9802 69.7814 91.8953 69.9186L90.5516 72.104L88.5276 70.0709L88.4955 70.0386C88.3916 69.9343 88.2544 69.87 88.1081 69.8572C87.9618 69.8443 87.8156 69.8837 87.6953 69.9683L83.6573 72.8086C83.6503 72.8086 83.6431 72.811 83.636 72.811C83.4428 72.8434 83.2663 72.941 83.1357 73.0877C83.0051 73.2344 82.9283 73.4215 82.9179 73.618L82.8136 75.7344H98.9387L98.159 72.9086Z" fill="#3B271E"/>
<path d="M107.159 75.4056H104.048C104.048 75.3184 104.013 75.2347 103.952 75.173C103.89 75.1113 103.807 75.0767 103.72 75.0767H102.738C102.651 75.0767 102.568 75.1113 102.506 75.173C102.445 75.2347 102.41 75.3184 102.41 75.4056H101.428C101.428 75.3184 101.393 75.2347 101.332 75.173C101.27 75.1113 101.187 75.0767 101.1 75.0767H100.118C100.031 75.0767 99.9477 75.1113 99.8863 75.173C99.8249 75.2347 99.7904 75.3184 99.7904 75.4056H98.8079C98.8079 75.3184 98.7734 75.2347 98.712 75.173C98.6506 75.1113 98.5673 75.0767 98.4804 75.0767H97.498C97.4111 75.0767 97.3279 75.1113 97.2664 75.173C97.205 75.2347 97.1705 75.3184 97.1705 75.4056H96.1881C96.1881 75.3184 96.1536 75.2347 96.0922 75.173C96.0308 75.1113 95.9474 75.0767 95.8606 75.0767H94.8781C94.7913 75.0767 94.708 75.1113 94.6466 75.173C94.5852 75.2347 94.5507 75.3184 94.5507 75.4056H93.5682C93.5682 75.3184 93.5337 75.2347 93.4723 75.173C93.4109 75.1113 93.3276 75.0767 93.2407 75.0767H92.2583C92.1714 75.0767 92.0881 75.1113 92.0267 75.173C91.9653 75.2347 91.9308 75.3184 91.9308 75.4056H90.9483C90.9483 75.3184 90.9138 75.2347 90.8524 75.173C90.791 75.1113 90.7077 75.0767 90.6209 75.0767H89.6384C89.5516 75.0767 89.4683 75.1113 89.4069 75.173C89.3454 75.2347 89.3109 75.3184 89.3109 75.4056H88.3285C88.3285 75.3184 88.294 75.2347 88.2326 75.173C88.1711 75.1113 88.0879 75.0767 88.001 75.0767H87.0186C86.9317 75.0767 86.8484 75.1113 86.787 75.173C86.7256 75.2347 86.6911 75.3184 86.6911 75.4056H85.7086C85.7086 75.3184 85.6741 75.2347 85.6127 75.173C85.5513 75.1113 85.468 75.0767 85.3811 75.0767H84.3987C84.3118 75.0767 84.2285 75.1113 84.1671 75.173C84.1057 75.2347 84.0712 75.3184 84.0712 75.4056H83.0888C83.0888 75.3184 83.0543 75.2347 82.9928 75.173C82.9314 75.1113 82.8481 75.0767 82.7613 75.0767H81.7788C81.692 75.0767 81.6087 75.1113 81.5473 75.173C81.4858 75.2347 81.4513 75.3184 81.4513 75.4056H80.4689C80.4689 75.3184 80.4344 75.2347 80.373 75.173C80.3116 75.1113 80.2283 75.0767 80.1414 75.0767H79.159C79.0721 75.0767 78.9888 75.1113 78.9274 75.173C78.866 75.2347 78.8315 75.3184 78.8315 75.4056H77.849C77.849 75.3184 77.8145 75.2347 77.7531 75.173C77.6917 75.1113 77.6084 75.0767 77.5216 75.0767H76.5391C76.4522 75.0767 76.3689 75.1113 76.3075 75.173C76.2461 75.2347 76.2116 75.3184 76.2116 75.4056H73.1005C72.8402 75.406 72.5907 75.5102 72.4068 75.6952C72.2229 75.8802 72.1196 76.131 72.1196 76.3925C72.1196 76.6539 72.2229 76.9047 72.4068 77.0898C72.5907 77.2748 72.8402 77.3789 73.1005 77.3793H107.159C107.419 77.3793 107.669 77.2754 107.853 77.0903C108.038 76.9052 108.141 76.6542 108.141 76.3925C108.141 76.1307 108.038 75.8797 107.853 75.6947C107.669 75.5096 107.419 75.4056 107.159 75.4056Z" fill="#3F3D56"/>
<path d="M68.0361 69.6746V76.2274H51.6924C51.2545 76.2427 50.8181 76.1693 50.409 76.0115C50 75.8537 49.6268 75.6149 49.3116 75.3091C48.9965 75.0034 48.7458 74.637 48.5746 74.2319C48.4035 73.8267 48.3152 73.3911 48.3152 72.951C48.3152 72.5109 48.4035 72.0753 48.5746 71.6701C48.7458 71.265 48.9965 70.8986 49.3116 70.5929C49.6268 70.2871 50 70.0483 50.409 69.8905C50.8181 69.7327 51.2545 69.6593 51.6924 69.6746H68.0361Z" fill="#F2F2F2"/>
<path d="M68.4375 76.1769C68.4375 76.2438 68.4111 76.3079 68.364 76.3551C68.317 76.4024 68.2532 76.429 68.1866 76.429H51.4013C50.4897 76.429 49.6154 76.0652 48.9708 75.4177C48.3261 74.7702 47.964 73.8919 47.964 72.9762C47.964 72.0605 48.3261 71.1822 48.9708 70.5347C49.6154 69.8872 50.4897 69.5234 51.4013 69.5234H68.1866C68.2532 69.5234 68.317 69.55 68.364 69.5972C68.4111 69.6445 68.4375 69.7086 68.4375 69.7754C68.4375 69.8423 68.4111 69.9064 68.364 69.9536C68.317 70.0009 68.2532 70.0275 68.1866 70.0275H51.4013C50.6232 70.0282 49.8772 70.3391 49.3273 70.8921C48.7773 71.445 48.4684 72.1946 48.4684 72.9762C48.4684 73.7578 48.7773 74.5074 49.3273 75.0603C49.8772 75.6132 50.6232 75.9242 51.4013 75.9249H68.1866C68.2532 75.925 68.317 75.9515 68.364 75.9988C68.4111 76.046 68.4375 76.1101 68.4375 76.1769Z" fill="#3B271E"/>
<path d="M68.0361 71.1868H50.473C50.4664 71.1868 50.4598 71.1856 50.4537 71.183C50.4475 71.1805 50.442 71.1768 50.4373 71.1721C50.4326 71.1675 50.4288 71.1619 50.4263 71.1557C50.4238 71.1496 50.4225 71.143 50.4225 71.1364C50.4225 71.1297 50.4238 71.1231 50.4263 71.117C50.4288 71.1109 50.4326 71.1053 50.4373 71.1006C50.442 71.0959 50.4475 71.0922 50.4537 71.0897C50.4598 71.0872 50.4664 71.0859 50.473 71.086H68.0361C68.0493 71.0861 68.062 71.0914 68.0713 71.1009C68.0807 71.1103 68.0859 71.1231 68.0859 71.1364C68.0859 71.1497 68.0807 71.1625 68.0713 71.1719C68.062 71.1813 68.0493 71.1867 68.0361 71.1868Z" fill="#CCCCCC"/>
<path d="M68.0361 72.3965H50.473C50.4664 72.3966 50.4598 72.3953 50.4537 72.3928C50.4475 72.3903 50.442 72.3866 50.4373 72.3819C50.4326 72.3772 50.4288 72.3716 50.4263 72.3655C50.4238 72.3594 50.4225 72.3528 50.4225 72.3461C50.4225 72.3395 50.4238 72.3329 50.4263 72.3267C50.4288 72.3206 50.4326 72.315 50.4373 72.3104C50.442 72.3057 50.4475 72.302 50.4537 72.2995C50.4598 72.2969 50.4664 72.2957 50.473 72.2957H68.0361C68.0493 72.2958 68.062 72.3012 68.0713 72.3106C68.0807 72.32 68.0859 72.3328 68.0859 72.3461C68.0859 72.3594 68.0807 72.3722 68.0713 72.3816C68.062 72.3911 68.0493 72.3964 68.0361 72.3965Z" fill="#CCCCCC"/>
<path d="M68.0361 73.6062H50.473C50.4664 73.6063 50.4598 73.605 50.4537 73.6025C50.4475 73.6 50.442 73.5963 50.4373 73.5916C50.4326 73.5869 50.4288 73.5813 50.4263 73.5752C50.4238 73.5691 50.4225 73.5625 50.4225 73.5558C50.4225 73.5492 50.4238 73.5426 50.4263 73.5365C50.4288 73.5303 50.4326 73.5248 50.4373 73.5201C50.442 73.5154 50.4475 73.5117 50.4537 73.5092C50.4598 73.5067 50.4664 73.5054 50.473 73.5054H68.0361C68.0493 73.5055 68.062 73.5109 68.0713 73.5203C68.0807 73.5298 68.0859 73.5425 68.0859 73.5558C68.0859 73.5691 68.0807 73.5819 68.0713 73.5914C68.062 73.6008 68.0493 73.6062 68.0361 73.6062Z" fill="#CCCCCC"/>
<path d="M68.0361 74.816H50.473C50.4664 74.816 50.4598 74.8147 50.4537 74.8122C50.4475 74.8097 50.442 74.806 50.4373 74.8013C50.4326 74.7966 50.4288 74.7911 50.4263 74.7849C50.4238 74.7788 50.4225 74.7722 50.4225 74.7656C50.4225 74.7589 50.4238 74.7523 50.4263 74.7462C50.4288 74.74 50.4326 74.7345 50.4373 74.7298C50.442 74.7251 50.4475 74.7214 50.4537 74.7189C50.4598 74.7164 50.4664 74.7151 50.473 74.7152H68.0361C68.0493 74.7152 68.062 74.7206 68.0713 74.73C68.0807 74.7395 68.0859 74.7522 68.0859 74.7656C68.0859 74.7789 68.0807 74.7916 68.0713 74.8011C68.062 74.8105 68.0493 74.8159 68.0361 74.816Z" fill="#CCCCCC"/>
<path d="M64.9552 62.7709V69.3236H48.6115C48.1736 69.3389 47.7372 69.2655 47.3281 69.1078C46.9191 68.95 46.5459 68.7111 46.2307 68.4054C45.9155 68.0996 45.6649 67.7333 45.4937 67.3281C45.3225 66.923 45.2343 66.4874 45.2343 66.0473C45.2343 65.6072 45.3225 65.1715 45.4937 64.7664C45.6649 64.3613 45.9155 63.9949 46.2307 63.6892C46.5459 63.3834 46.9191 63.1445 47.3281 62.9868C47.7372 62.829 48.1736 62.7556 48.6115 62.7709H64.9552Z" fill="#F2F2F2"/>
<path d="M65.3566 69.2732C65.3566 69.3401 65.3301 69.4042 65.2831 69.4514C65.236 69.4987 65.1722 69.5252 65.1057 69.5253H48.3204C47.869 69.5253 47.422 69.436 47.005 69.2624C46.5879 69.0889 46.209 68.8346 45.8898 68.514C45.5706 68.1933 45.3174 67.8127 45.1447 67.3938C44.972 66.9749 44.883 66.5259 44.883 66.0725C44.883 65.6191 44.972 65.1701 45.1447 64.7512C45.3174 64.3322 45.5706 63.9516 45.8898 63.631C46.209 63.3104 46.5879 63.056 47.005 62.8825C47.422 62.709 47.869 62.6197 48.3204 62.6197H65.1057C65.1722 62.6197 65.2361 62.6462 65.2831 62.6935C65.3302 62.7408 65.3566 62.8049 65.3566 62.8717C65.3566 62.9386 65.3302 63.0027 65.2831 63.0499C65.2361 63.0972 65.1722 63.1237 65.1057 63.1237H48.3204C47.5423 63.1244 46.7963 63.4354 46.2464 63.9883C45.6964 64.5413 45.3875 65.2909 45.3875 66.0725C45.3875 66.8541 45.6964 67.6037 46.2464 68.1566C46.7963 68.7095 47.5423 69.0205 48.3204 69.0212H65.1057C65.1722 69.0212 65.236 69.0478 65.2831 69.0951C65.3301 69.1423 65.3566 69.2064 65.3566 69.2732Z" fill="#3F3D56"/>
<path d="M64.9551 64.2831H47.392C47.3854 64.2831 47.3789 64.2818 47.3727 64.2793C47.3666 64.2768 47.361 64.2731 47.3563 64.2684C47.3516 64.2637 47.3479 64.2582 47.3454 64.252C47.3428 64.2459 47.3415 64.2393 47.3415 64.2327C47.3415 64.226 47.3428 64.2194 47.3454 64.2133C47.3479 64.2071 47.3516 64.2016 47.3563 64.1969C47.361 64.1922 47.3666 64.1885 47.3727 64.186C47.3789 64.1835 47.3854 64.1822 47.392 64.1823H64.9551C64.9684 64.1823 64.9811 64.1877 64.9904 64.1971C64.9997 64.2066 65.005 64.2194 65.005 64.2327C65.005 64.246 64.9997 64.2587 64.9904 64.2682C64.9811 64.2776 64.9684 64.283 64.9551 64.2831Z" fill="#CCCCCC"/>
<path d="M64.9551 65.4928H47.392C47.3854 65.4929 47.3789 65.4916 47.3727 65.4891C47.3666 65.4866 47.361 65.4829 47.3563 65.4782C47.3516 65.4735 47.3479 65.4679 47.3454 65.4618C47.3428 65.4557 47.3415 65.4491 47.3415 65.4424C47.3415 65.4358 47.3428 65.4292 47.3454 65.4231C47.3479 65.4169 47.3516 65.4114 47.3563 65.4067C47.361 65.402 47.3666 65.3983 47.3727 65.3958C47.3789 65.3933 47.3854 65.392 47.392 65.392H64.9551C64.9684 65.3921 64.9811 65.3975 64.9904 65.4069C64.9997 65.4164 65.005 65.4291 65.005 65.4424C65.005 65.4557 64.9997 65.4685 64.9904 65.478C64.9811 65.4874 64.9684 65.4927 64.9551 65.4928Z" fill="#CCCCCC"/>
<path d="M64.9551 66.7026H47.392C47.3854 66.7026 47.3789 66.7013 47.3727 66.6988C47.3666 66.6963 47.361 66.6926 47.3563 66.6879C47.3516 66.6832 47.3479 66.6777 47.3454 66.6715C47.3428 66.6654 47.3415 66.6588 47.3415 66.6522C47.3415 66.6455 47.3428 66.6389 47.3454 66.6328C47.3479 66.6266 47.3516 66.6211 47.3563 66.6164C47.361 66.6117 47.3666 66.608 47.3727 66.6055C47.3789 66.603 47.3854 66.6017 47.392 66.6017H64.9551C64.9684 66.6018 64.9811 66.6072 64.9904 66.6166C64.9997 66.6261 65.005 66.6388 65.005 66.6522C65.005 66.6655 64.9997 66.6782 64.9904 66.6877C64.9811 66.6971 64.9684 66.7025 64.9551 66.7026Z" fill="#CCCCCC"/>
<path d="M64.9551 67.9123H47.392C47.3854 67.9123 47.3789 67.911 47.3727 67.9085C47.3666 67.906 47.361 67.9023 47.3563 67.8976C47.3516 67.8929 47.3479 67.8874 47.3454 67.8812C47.3428 67.8751 47.3415 67.8685 47.3415 67.8619C47.3415 67.8552 47.3428 67.8486 47.3454 67.8425C47.3479 67.8364 47.3516 67.8308 47.3563 67.8261C47.361 67.8214 47.3666 67.8177 47.3727 67.8152C47.3789 67.8127 47.3854 67.8114 47.392 67.8115H64.9551C64.9684 67.8116 64.9811 67.8169 64.9904 67.8263C64.9997 67.8358 65.005 67.8486 65.005 67.8619C65.005 67.8752 64.9997 67.8879 64.9904 67.8974C64.9811 67.9068 64.9684 67.9122 64.9551 67.9123Z" fill="#CCCCCC"/>
<path d="M83.9678 99.5188V93.8054C83.9678 93.5528 83.8679 93.3106 83.6901 93.1321C83.5123 92.9535 83.2712 92.8532 83.0198 92.8531H61.4533C61.2019 92.8532 60.9608 92.9535 60.783 93.1321C60.6052 93.3106 60.5054 93.5528 60.5054 93.8054V99.5188H83.9678Z" fill="#CCCCCC"/>
<path d="M83.9678 101.661H60.5054V109.041H83.9678V101.661Z" fill="#CCCCCC"/>
<path d="M60.5054 111.184V116.897C60.5054 117.15 60.6052 117.392 60.783 117.57C60.9608 117.749 61.2019 117.849 61.4533 117.849H83.0198C83.2712 117.849 83.5123 117.749 83.6901 117.57C83.8679 117.392 83.9678 117.15 83.9678 116.897V111.184H60.5054Z" fill="#CCCCCC"/>
<path d="M72.1181 97.1382C72.5108 97.1382 72.8291 96.8184 72.8291 96.424C72.8291 96.0296 72.5108 95.7098 72.1181 95.7098C71.7254 95.7098 71.4071 96.0296 71.4071 96.424C71.4071 96.8184 71.7254 97.1382 72.1181 97.1382Z" fill="white"/>
<path d="M72.1181 106.661C72.5108 106.661 72.8291 106.341 72.8291 105.946C72.8291 105.552 72.5108 105.232 72.1181 105.232C71.7254 105.232 71.4071 105.552 71.4071 105.946C71.4071 106.341 71.7254 106.661 72.1181 106.661Z" fill="white"/>
<path d="M72.1562 115.981C72.5489 115.981 72.8672 115.662 72.8672 115.267C72.8672 114.873 72.5489 114.553 72.1562 114.553C71.7635 114.553 71.4452 114.873 71.4452 115.267C71.4452 115.662 71.7635 115.981 72.1562 115.981Z" fill="white"/>
<path d="M81.3077 86.3387V92.8915H64.9641C64.5262 92.9068 64.0897 92.8333 63.6807 92.6756C63.2717 92.5178 62.8985 92.2789 62.5833 91.9732C62.2681 91.6674 62.0175 91.3011 61.8463 90.8959C61.6751 90.4908 61.5869 90.0552 61.5869 89.6151C61.5869 89.175 61.6751 88.7394 61.8463 88.3342C62.0175 87.9291 62.2681 87.5627 62.5833 87.257C62.8985 86.9512 63.2717 86.7123 63.6807 86.5546C64.0897 86.3968 64.5262 86.3234 64.9641 86.3387H81.3077Z" fill="#F2F2F2"/>
<path d="M81.7092 92.841C81.7092 92.9079 81.6827 92.972 81.6357 93.0192C81.5886 93.0665 81.5248 93.0931 81.4583 93.0931H64.673C64.2214 93.0935 63.7741 93.0044 63.3567 92.8311C62.9393 92.6577 62.5601 92.4035 62.2406 92.0828C61.9211 91.7621 61.6676 91.3814 61.4947 90.9623C61.3218 90.5432 61.2328 90.094 61.2328 89.6403C61.2328 89.1866 61.3218 88.7374 61.4947 88.3183C61.6676 87.8992 61.9211 87.5184 62.2406 87.1978C62.5601 86.8771 62.9393 86.6229 63.3567 86.4495C63.7741 86.2762 64.2214 86.1871 64.673 86.1875H81.4583C81.5248 86.1875 81.5887 86.214 81.6357 86.2613C81.6828 86.3086 81.7092 86.3727 81.7092 86.4395C81.7092 86.5064 81.6828 86.5705 81.6357 86.6177C81.5887 86.665 81.5248 86.6916 81.4583 86.6916H64.673C63.8949 86.6923 63.1489 87.0032 62.599 87.5561C62.049 88.1091 61.7401 88.8587 61.7401 89.6403C61.7401 90.4219 62.049 91.1715 62.599 91.7244C63.1489 92.2773 63.8949 92.5883 64.673 92.589H81.4583C81.5248 92.589 81.5886 92.6156 81.6357 92.6629C81.6827 92.7101 81.7092 92.7742 81.7092 92.841Z" fill="#3F3D56"/>
<path d="M81.3077 87.8509H63.7447C63.738 87.8509 63.7315 87.8496 63.7253 87.8471C63.7192 87.8446 63.7136 87.8409 63.7089 87.8362C63.7042 87.8316 63.7005 87.826 63.698 87.8198C63.6954 87.8137 63.6941 87.8071 63.6941 87.8005C63.6941 87.7938 63.6954 87.7872 63.698 87.7811C63.7005 87.775 63.7042 87.7694 63.7089 87.7647C63.7136 87.76 63.7192 87.7563 63.7253 87.7538C63.7315 87.7513 63.738 87.75 63.7447 87.7501H81.3077C81.321 87.7502 81.3337 87.7555 81.343 87.765C81.3524 87.7744 81.3576 87.7872 81.3576 87.8005C81.3576 87.8138 81.3524 87.8265 81.343 87.836C81.3337 87.8454 81.321 87.8508 81.3077 87.8509Z" fill="#CCCCCC"/>
<path d="M81.3077 89.0606H63.7447C63.738 89.0607 63.7315 89.0594 63.7253 89.0569C63.7192 89.0544 63.7136 89.0507 63.7089 89.046C63.7042 89.0413 63.7005 89.0358 63.698 89.0296C63.6954 89.0235 63.6941 89.0169 63.6941 89.0102C63.6941 89.0036 63.6954 88.997 63.698 88.9909C63.7005 88.9847 63.7042 88.9792 63.7089 88.9745C63.7136 88.9698 63.7192 88.9661 63.7253 88.9636C63.7315 88.9611 63.738 88.9598 63.7447 88.9598H81.3077C81.321 88.9599 81.3337 88.9653 81.343 88.9747C81.3524 88.9842 81.3576 88.9969 81.3576 89.0102C81.3576 89.0236 81.3524 89.0363 81.343 89.0458C81.3337 89.0552 81.321 89.0606 81.3077 89.0606Z" fill="#CCCCCC"/>
<path d="M81.3077 90.2704H63.7447C63.738 90.2704 63.7315 90.2691 63.7253 90.2666C63.7192 90.2641 63.7136 90.2604 63.7089 90.2557C63.7042 90.251 63.7005 90.2455 63.698 90.2393C63.6954 90.2332 63.6941 90.2266 63.6941 90.22C63.6941 90.2133 63.6954 90.2067 63.698 90.2006C63.7005 90.1945 63.7042 90.1889 63.7089 90.1842C63.7136 90.1795 63.7192 90.1758 63.7253 90.1733C63.7315 90.1708 63.738 90.1695 63.7447 90.1696H81.3077C81.321 90.1696 81.3337 90.175 81.343 90.1844C81.3524 90.1939 81.3576 90.2067 81.3576 90.22C81.3576 90.2333 81.3524 90.246 81.343 90.2555C81.3337 90.2649 81.321 90.2703 81.3077 90.2704Z" fill="#CCCCCC"/>
<path d="M81.3077 91.4801H63.7447C63.738 91.4801 63.7315 91.4789 63.7253 91.4763C63.7192 91.4738 63.7136 91.4701 63.7089 91.4655C63.7042 91.4608 63.7005 91.4552 63.698 91.449C63.6954 91.4429 63.6941 91.4363 63.6941 91.4297C63.6941 91.423 63.6954 91.4164 63.698 91.4103C63.7005 91.4042 63.7042 91.3986 63.7089 91.3939C63.7136 91.3892 63.7192 91.3855 63.7253 91.383C63.7315 91.3805 63.738 91.3792 63.7447 91.3793H81.3077C81.321 91.3794 81.3337 91.3847 81.343 91.3942C81.3524 91.4036 81.3576 91.4164 81.3576 91.4297C81.3576 91.443 81.3524 91.4558 81.343 91.4652C81.3337 91.4746 81.321 91.48 81.3077 91.4801Z" fill="#CCCCCC"/>
<path d="M59.2747 43.5698V1.79054C59.2752 1.31583 59.4632 0.860711 59.7974 0.525036C60.1316 0.189361 60.5846 0.000539974 61.0572 0H93.9351C94.4077 0.000543118 94.8608 0.189366 95.195 0.52504C95.5291 0.860714 95.7171 1.31583 95.7176 1.79054V43.5698C95.7171 44.0446 95.5291 44.4997 95.195 44.8354C94.8608 45.171 94.4077 45.3598 93.9351 45.3604H61.0572C60.5846 45.3598 60.1316 45.171 59.7974 44.8354C59.4632 44.4997 59.2752 44.0446 59.2747 43.5698ZM61.0572 0.397899C60.6897 0.398312 60.3373 0.545171 60.0774 0.806252C59.8174 1.06733 59.6712 1.42132 59.6708 1.79054V43.5698C59.6712 43.9391 59.8174 44.2931 60.0774 44.5541C60.3373 44.8152 60.6897 44.9621 61.0572 44.9625H93.9351C94.3027 44.9621 94.6551 44.8152 94.915 44.5541C95.1749 44.2931 95.3211 43.9391 95.3215 43.5698V1.79054C95.3211 1.42132 95.1749 1.06733 94.915 0.806252C94.6551 0.545171 94.3027 0.398313 93.9351 0.397899H61.0572Z" fill="#E6E6E6"/>
<path d="M79.3399 19.187V10.6084C79.3401 10.371 79.4341 10.1435 79.6012 9.97562C79.7683 9.80778 79.9948 9.71337 80.2311 9.7131H87.4682C87.7045 9.71337 87.9311 9.80778 88.0981 9.97562C88.2652 10.1435 88.3592 10.371 88.3595 10.6084V19.187C88.3592 19.4243 88.2652 19.6519 88.0981 19.8197C87.9311 19.9876 87.7045 20.082 87.4682 20.0823H80.2311C79.9948 20.082 79.7683 19.9876 79.6012 19.8197C79.4341 19.6519 79.3401 19.4243 79.3399 19.187Z" fill="#3B271E"/>
<path d="M65.2776 23.166V14.5874C65.2779 14.35 65.3719 14.1225 65.539 13.9546C65.7061 13.7868 65.9326 13.6924 66.1689 13.6921H73.406C73.6423 13.6924 73.8688 13.7868 74.0359 13.9546C74.203 14.1225 74.297 14.35 74.2973 14.5874V23.166C74.297 23.4033 74.203 23.6309 74.0359 23.7987C73.8688 23.9666 73.6423 24.061 73.406 24.0613H66.1689C65.9326 24.061 65.7061 23.9666 65.539 23.7987C65.3719 23.6309 65.2779 23.4033 65.2776 23.166Z" fill="#CCCCCC"/>
<path d="M76.567 35.3018V26.7232C76.5673 26.4859 76.6613 26.2583 76.8284 26.0905C76.9955 25.9226 77.222 25.8282 77.4583 25.828H84.6954C84.9317 25.8282 85.1582 25.9226 85.3253 26.0905C85.4924 26.2583 85.5864 26.4859 85.5867 26.7232V35.3018C85.5864 35.5392 85.4924 35.7668 85.3253 35.9346C85.1582 36.1025 84.9317 36.1969 84.6954 36.1971H77.4583C77.222 36.1969 76.9955 36.1025 76.8284 35.9346C76.6613 35.7668 76.5673 35.5392 76.567 35.3018Z" fill="#FF6584"/>
<path d="M119.815 74.5226H112.369C112.298 74.5226 112.229 74.5389 112.165 74.5702L110.286 75.5153C110.224 75.5417 110.171 75.5858 110.134 75.6421C110.097 75.6984 110.077 75.7644 110.077 75.832C110.077 75.8995 110.097 75.9655 110.134 76.0218C110.171 76.0781 110.224 76.1222 110.286 76.1486L112.165 77.0937C112.229 77.125 112.298 77.1413 112.369 77.1413H119.815C119.918 77.1472 120.019 77.1124 120.096 77.0442C120.173 76.976 120.221 76.88 120.228 76.777V74.8869C120.221 74.7839 120.173 74.6879 120.096 74.6197C120.019 74.5515 119.918 74.5167 119.815 74.5226Z" fill="#3F3D56"/>
<path d="M120.228 74.8869V76.7771C120.221 76.88 120.173 76.976 120.096 77.0442C120.019 77.1124 119.918 77.1472 119.815 77.1413H118.332V74.5226H119.815C119.918 74.5167 120.019 74.5516 120.096 74.6197C120.173 74.6879 120.221 74.7839 120.228 74.8869Z" fill="#3B271E"/>
<path d="M119.759 60.3819C120.097 60.2357 120.461 60.1627 120.828 60.1678C121.196 60.1728 121.558 60.2557 121.891 60.4112C122.224 60.5666 122.521 60.7909 122.762 61.0696C123.002 61.3482 123.182 61.6748 123.288 62.028C123.322 62.1399 123.347 62.2541 123.364 62.3696L133.777 67.5564L136.187 65.9523L139.186 69.4197L135.506 72.4216C135.064 72.7797 134.518 72.9851 133.95 73.0071C133.382 73.0291 132.822 72.8666 132.354 72.5437L121.789 65.2048C121.71 65.2383 121.63 65.2677 121.548 65.2929C121.197 65.3997 120.826 65.4307 120.462 65.3838C120.098 65.3369 119.747 65.2132 119.434 65.0208C119.12 64.8284 118.851 64.5716 118.643 64.2673C118.435 63.963 118.294 63.618 118.228 63.2549C118.208 63.1495 118.195 63.043 118.189 62.936C118.16 62.4002 118.295 61.8681 118.575 61.4115C118.856 60.9549 119.269 60.5956 119.759 60.3819Z" fill="#FFB8B8"/>
<path d="M141.448 92.3172H130.07C130.07 92.6457 118.343 92.9123 118.343 92.9123C118.159 93.0515 117.992 93.2113 117.843 93.3884C117.398 93.922 117.155 94.5965 117.156 95.2929V95.769C117.156 96.5581 117.468 97.3149 118.024 97.8729C118.579 98.4309 119.333 98.7445 120.118 98.7448H141.448C142.233 98.7441 142.986 98.4303 143.542 97.8724C144.097 97.3145 144.41 96.558 144.41 95.769V95.2929C144.409 94.504 144.097 93.7478 143.541 93.19C142.986 92.6321 142.233 92.3183 141.448 92.3172Z" fill="#3F3D56"/>
<path d="M129.071 118.623H132.152V98.6265H129.071V118.623Z" fill="#3F3D56"/>
<path d="M120.302 118.515C120.302 118.849 124.971 118.644 130.73 118.644C136.489 118.644 141.158 118.849 141.158 118.515C141.158 118.18 136.489 115.529 130.73 115.529C124.971 115.529 120.302 118.18 120.302 118.515Z" fill="#3F3D56"/>
<path d="M123.084 116.171L120.178 116.171L118.796 108.601L123.084 108.601L123.084 116.171Z" fill="#FFB8B8"/>
<path d="M123.825 119L114.456 119V118.881C114.456 118.4 114.551 117.923 114.734 117.479C114.917 117.035 115.186 116.631 115.524 116.291C115.863 115.95 116.265 115.681 116.707 115.497C117.15 115.313 117.624 115.218 118.103 115.218H118.103L123.825 115.218L123.825 119Z" fill="#2F2E41"/>
<path d="M118.738 111.477L112.946 98.4295C112.462 97.3298 112.409 96.0875 112.796 94.95C113.183 93.8124 113.983 92.8632 115.036 92.2913L127.6 85.5239L133.333 85.034L138.621 84.5512L138.659 84.616C138.708 84.6988 139.845 86.6716 139.076 88.8348C138.493 90.4757 136.977 91.7573 134.569 92.6442C128.949 94.7142 122.457 96.4834 119.926 97.1478C119.814 97.1766 119.71 97.2287 119.619 97.3009C119.529 97.3732 119.455 97.4638 119.402 97.5668C119.349 97.6686 119.317 97.7803 119.309 97.895C119.301 98.0097 119.317 98.1248 119.356 98.2331L124.737 110.378C124.793 110.532 124.813 110.696 124.796 110.86C124.779 111.023 124.724 111.18 124.637 111.318C124.55 111.457 124.432 111.574 124.293 111.66C124.154 111.745 123.997 111.798 123.834 111.813L119.813 112.107C119.779 112.11 119.745 112.112 119.711 112.112C119.505 112.112 119.304 112.052 119.131 111.939C118.958 111.826 118.822 111.666 118.738 111.477Z" fill="#2F2E41"/>
<path d="M124.506 116.171L121.6 116.171L120.218 108.601L124.506 108.601L124.506 116.171Z" fill="#FFB8B8"/>
<path d="M125.247 119L115.878 119V118.881C115.878 118.4 115.972 117.923 116.156 117.479C116.339 117.035 116.608 116.631 116.946 116.291C117.285 115.95 117.687 115.681 118.129 115.497C118.572 115.313 119.046 115.218 119.525 115.218H119.525L125.247 115.218L125.247 119Z" fill="#2F2E41"/>
<path d="M120.397 112.191L114.605 99.1437C114.121 98.044 114.068 96.8017 114.455 95.6642C114.842 94.5266 115.642 93.5774 116.695 93.0055L129.258 86.2381L134.992 85.7482L140.28 85.2654L140.318 85.3302C140.367 85.413 141.504 87.3858 140.735 89.549C140.152 91.1899 138.636 92.4715 136.228 93.3584C130.608 95.4284 124.116 97.1976 121.585 97.862C121.473 97.8908 121.369 97.9429 121.278 98.0152C121.188 98.0874 121.114 98.178 121.061 98.281C121.008 98.3828 120.976 98.4946 120.968 98.6092C120.96 98.7239 120.976 98.839 121.015 98.9473L126.396 111.092C126.452 111.246 126.472 111.411 126.455 111.574C126.438 111.737 126.383 111.894 126.296 112.033C126.209 112.171 126.091 112.288 125.952 112.374C125.813 112.459 125.656 112.512 125.493 112.527L121.472 112.821C121.438 112.824 121.404 112.826 121.37 112.826C121.164 112.826 120.963 112.766 120.79 112.653C120.617 112.541 120.481 112.38 120.397 112.191Z" fill="#2F2E41"/>
<path d="M117.51 72.3328C115.076 69.0806 113.152 65.4734 111.804 61.6364C111.726 61.4069 111.732 61.157 111.82 60.9312C111.908 60.7054 112.073 60.5184 112.286 60.4034L120.615 55.9204C120.75 55.8473 120.899 55.8061 121.052 55.7998C121.205 55.7936 121.358 55.8225 121.498 55.8844C121.641 55.9467 121.767 56.0409 121.869 56.1599C121.97 56.2789 122.042 56.4194 122.081 56.5709C123.051 60.2683 124.873 63.6846 127.401 66.5434C127.505 66.6597 127.581 66.7984 127.624 66.9488C127.666 67.0993 127.674 67.2575 127.647 67.4115C127.62 67.563 127.56 67.7065 127.47 67.831C127.38 67.9555 127.263 68.0577 127.128 68.13L118.799 72.613C118.586 72.7271 118.339 72.7616 118.103 72.7103C117.867 72.6589 117.657 72.5252 117.51 72.3328Z" fill="#CCCCCC"/>
<path d="M118.078 71.9038C118.123 71.9599 118.186 71.9986 118.256 72.0132C118.326 72.0278 118.399 72.0173 118.463 71.9835L126.792 67.5004C126.832 67.4792 126.867 67.4489 126.894 67.4119C126.921 67.3748 126.939 67.332 126.947 67.2868C126.955 67.2392 126.953 67.1901 126.94 67.1435C126.926 67.0969 126.902 67.0541 126.87 67.0183C124.267 64.0754 122.391 60.5584 121.393 56.7521C121.382 56.705 121.36 56.6613 121.328 56.6244C121.297 56.5874 121.258 56.5582 121.214 56.539C121.172 56.5203 121.127 56.5115 121.081 56.5134C121.035 56.5153 120.991 56.5278 120.951 56.5499L112.622 61.0329C112.558 61.0672 112.509 61.1225 112.482 61.1893C112.456 61.2561 112.453 61.3302 112.475 61.3988C113.798 65.1671 115.688 68.7098 118.078 71.9038Z" fill="white"/>
<path d="M145.181 71.1369L138.658 73.6268L137.065 69.1831C136.854 68.593 136.857 67.9469 137.074 67.3588C137.29 66.7707 137.707 66.2786 138.251 65.9694C138.8 65.6566 139.443 65.5515 140.063 65.6731C140.682 65.7947 141.239 66.1349 141.631 66.6323L145.181 71.1369Z" fill="#3B271E"/>
<path d="M128.589 88.7438C128.452 88.6462 128.337 88.5204 128.252 88.3747C128.166 88.2291 128.113 88.0669 128.095 87.8989C127.26 80.0645 127.842 73.9334 129.874 69.1554C130.232 68.3313 130.771 67.5994 131.451 67.0148C132.131 66.4301 132.934 66.0079 133.8 65.7798L139.073 65.5125L139.101 65.5257C140.291 66.1111 141.261 67.0661 141.868 68.2492C142.475 69.4322 142.686 70.7802 142.47 72.0934C140.775 76.5839 139.354 81.2593 140.437 85.0309C140.483 85.1886 140.496 85.3539 140.476 85.5168C140.457 85.6798 140.404 85.8371 140.323 85.9792C140.244 86.1166 140.137 86.2363 140.01 86.3308C139.883 86.4254 139.738 86.4928 139.584 86.5289L129.541 88.9288C129.378 88.9677 129.209 88.9713 129.045 88.9394C128.881 88.9074 128.725 88.8408 128.589 88.7438Z" fill="#3B271E"/>
<path d="M137.314 63.5341C140.528 63.5341 143.134 60.9163 143.134 57.6871C143.134 54.458 140.528 51.8402 137.314 51.8402C134.099 51.8402 131.493 54.458 131.493 57.6871C131.493 60.9163 134.099 63.5341 137.314 63.5341Z" fill="#FFB8B8"/>
<path d="M121.162 62.3181L116.625 64.3296C116.453 64.4059 116.257 64.4103 116.081 64.3419C115.906 64.2734 115.764 64.1378 115.688 63.9646L115.576 63.7093C115.5 63.536 115.495 63.3395 115.563 63.163C115.631 62.9864 115.766 62.8442 115.939 62.7676L120.475 60.7561C120.648 60.6798 120.843 60.6754 121.019 60.7438C121.195 60.8122 121.337 60.9479 121.413 61.121L121.525 61.3763C121.601 61.5496 121.605 61.7461 121.537 61.9227C121.469 62.0992 121.334 62.2414 121.162 62.3181Z" fill="#CCCCCC"/>
<path d="M122.821 65.4129L118.284 67.4244C118.112 67.5007 117.916 67.5051 117.74 67.4366C117.565 67.3682 117.423 67.2326 117.347 67.0594L117.234 66.8041C117.159 66.6308 117.154 66.4343 117.222 66.2578C117.29 66.0812 117.425 65.939 117.598 65.8623L122.134 63.8509C122.307 63.7746 122.502 63.7702 122.678 63.8386C122.854 63.907 122.995 64.0427 123.072 64.2158L123.184 64.4711C123.26 64.6444 123.264 64.8409 123.196 65.0175C123.128 65.194 122.993 65.3362 122.821 65.4129Z" fill="#CCCCCC"/>
<path d="M126.319 77.5008L116.206 69.4863C116.125 69.5148 116.043 69.5391 115.96 69.5591C115.603 69.643 115.232 69.6505 114.872 69.5811C114.512 69.5117 114.171 69.367 113.87 69.1564C113.567 68.9457 113.313 68.6724 113.124 68.3549C112.935 68.0374 112.815 67.683 112.774 67.3154C112.706 66.7278 112.838 66.1344 113.148 65.6314C113.458 65.1285 113.928 64.7456 114.482 64.5449C114.828 64.4203 115.196 64.3705 115.562 64.3987C115.929 64.427 116.285 64.5327 116.608 64.7088C116.93 64.8849 117.213 65.1276 117.435 65.4209C117.658 65.7142 117.817 66.0515 117.901 66.4106C117.927 66.5245 117.945 66.64 117.955 66.7563L128.023 72.5905L130.529 71.1416L133.304 74.7915L129.414 77.5766C128.959 77.9 128.412 78.0672 127.854 78.0536C127.297 78.0399 126.758 77.8461 126.319 77.5008Z" fill="#FFB8B8"/>
<path d="M134.538 75.9281L128.768 71.9865L131.48 68.1283C131.84 67.616 132.369 67.2481 132.973 67.0895C133.577 66.9309 134.217 66.992 134.781 67.2618C135.351 67.5348 135.805 68.0035 136.061 68.5834C136.317 69.1633 136.359 69.816 136.178 70.4238L134.538 75.9281Z" fill="#3B271E"/>
<path d="M135.179 56.8163C133.683 57.8448 131.719 58.9021 130.191 57.8068C129.188 57.0876 128.872 55.7558 129.278 54.5871C130.01 52.4854 132.02 51.5601 133.943 50.8508C136.442 49.9288 139.163 49.1953 141.742 49.8556C144.322 50.5159 146.602 53.0249 146.136 55.6578C145.762 57.7752 143.773 59.537 144.056 61.6687C144.34 63.8141 146.742 64.9434 148.862 65.3268C150.983 65.7103 153.356 65.8335 154.88 67.3635C156.824 69.3153 156.338 72.8039 154.509 74.8646C152.68 76.9253 149.919 77.8594 147.244 78.4944C143.7 79.3358 139.867 79.7779 136.501 78.3816C133.135 76.9853 130.515 73.2266 131.491 69.7021C131.902 68.2133 132.873 66.9551 133.81 65.7302C134.748 64.5053 135.698 63.2244 136.055 61.7215C136.353 60.4692 136.133 59.0151 135.306 58.0757C135.156 57.9113 135.061 57.7032 135.036 57.4814C135.01 57.2596 135.056 57.0354 135.165 56.841L135.179 56.8163Z" fill="#2F2E41"/>
<path d="M25.8495 85.2247C24.3496 85.7543 22.7392 85.8869 21.1734 85.6099C19.6076 85.3328 18.1393 84.6554 16.9098 83.6428C13.7786 81.0029 12.7969 76.6538 11.9981 72.6267C11.2106 68.6562 10.423 64.6857 9.63547 60.7152L14.5819 64.1365C18.1391 66.5968 21.7765 69.136 24.2395 72.6997C26.7025 76.2634 27.7775 81.1282 25.7986 84.9843" fill="#E6E6E6"/>
<path d="M25.4267 99.6459C25.9273 95.9828 26.4421 92.2726 26.0909 88.5702C25.779 85.2821 24.7804 82.0705 22.7472 79.4373C21.668 78.0422 20.3548 76.8469 18.8667 75.9051C18.4787 75.6591 18.1215 76.2768 18.5079 76.5218C21.0827 78.1564 23.0743 80.5702 24.1954 83.4151C25.4337 86.5788 25.6326 90.0274 25.4192 93.3882C25.2901 95.4205 25.0166 97.4396 24.7411 99.456C24.7193 99.5472 24.7329 99.6433 24.779 99.7248C24.8251 99.8064 24.9003 99.8673 24.9893 99.8953C25.0802 99.9199 25.1771 99.9075 25.259 99.8608C25.3409 99.8141 25.4011 99.7369 25.4267 99.6459Z" fill="#F2F2F2"/>
<path d="M20.6045 93.1639C19.9612 94.146 19.077 94.9451 18.037 95.4843C16.997 96.0235 15.8363 96.2845 14.6667 96.2423C11.6609 96.099 9.15495 93.9917 6.89917 91.991L0.226999 86.0736L4.64287 85.8613C7.8185 85.7086 11.0761 85.5662 14.1007 86.5499C17.1254 87.5336 19.9149 89.9011 20.468 93.0459" fill="#E6E6E6"/>
<path d="M26.8415 101.752C24.4318 97.4687 21.6368 92.7087 16.6425 91.1873C15.2539 90.7657 13.7978 90.6147 12.3527 90.7424C11.8972 90.7818 12.011 91.4871 12.4656 91.4477C14.8879 91.2457 17.3056 91.8882 19.3115 93.267C21.2418 94.5868 22.7448 96.4217 24.0168 98.3675C24.796 99.5593 25.494 100.802 26.192 102.043C26.4151 102.439 27.0672 102.153 26.8415 101.752Z" fill="#F2F2F2"/>
<path d="M30.7025 106.26C30.6214 105.315 30.2836 104.41 29.726 103.645C29.1684 102.879 28.4125 102.282 27.5404 101.918V99.4423H23.4061V101.996C22.5769 102.378 21.8633 102.974 21.3381 103.723C20.8128 104.472 20.4947 105.347 20.4161 106.26L19.4439 117.611H31.6747L30.7025 106.26Z" fill="#F2F2F2"/>
</g>
<defs>
<filter id="filter0_d_72_45" x="-4" y="0" width="172" height="127" filterUnits="userSpaceOnUse" color-interpolation-filters="sRGB">
<feFlood flood-opacity="0" result="BackgroundImageFix"/>
<feColorMatrix in="SourceAlpha" type="matrix" values="0 0 0 0 0 0 0 0 0 0 0 0 0 0 0 0 0 0 127 0" result="hardAlpha"/>
<feOffset dy="4"/>
<feGaussianBlur stdDeviation="2"/>
<feComposite in2="hardAlpha" operator="out"/>
<feColorMatrix type="matrix" values="0 0 0 0 0 0 0 0 0 0 0 0 0 0 0 0 0 0 0.25 0"/>
<feBlend mode="normal" in2="BackgroundImageFix" result="effect1_dropShadow_72_45"/>
<feBlend mode="normal" in="SourceGraphic" in2="effect1_dropShadow_72_45" result="shape"/>
</filter>
<clipPath id="clip0_72_45">
<rect width="164" height="119" fill="white"/>
</clipPath>
</defs>
</svg>
